<svg width="1440" height="764" viewBox="0 0 1440 764" fill="none" xmlns="http://www.w3.org/2000/svg">
<mask id="mask0_8_898" style="mask-type:alpha" maskUnits="userSpaceOnUse" x="0" y="0" width="1440" height="764">
<rect width="1440" height="764" fill="#D9D9D9"/>
</mask>
<g mask="url(#mask0_8_898)">
<g filter="url(#filter0_f_8_898)">
<path d="M-444.768 86.7218C-552.43 273.199 -616.212 467.144 -628.759 632.817C-640.706 790.563 -607.039 960.292 -469.972 1039.43C-332.906 1118.56 -169.083 1062.85 -38.4447 973.635C98.7588 879.933 234.83 727.724 342.492 541.247C450.155 354.769 513.936 160.824 526.483 -4.8489C538.43 -162.595 504.763 -332.323 367.697 -411.459C230.63 -490.594 66.8076 -434.886 -63.8309 -345.667C-201.034 -251.964 -337.105 -99.7553 -444.768 86.7218Z" stroke="url(#paint0_angular_8_898)" stroke-width="200"/>
</g>
<g filter="url(#filter1_f_8_898)">
<path d="M-444.768 86.7218C-552.431 273.199 -616.212 467.144 -628.759 632.817C-640.706 790.563 -607.039 960.292 -469.972 1039.43C-332.906 1118.56 -169.083 1062.85 -38.4448 973.635C98.7587 879.933 234.83 727.724 342.492 541.247C450.155 354.769 513.936 160.824 526.483 -4.8489C538.43 -162.595 504.763 -332.323 367.697 -411.459C230.63 -490.594 66.8075 -434.886 -63.831 -345.667C-201.035 -251.964 -337.105 -99.7553 -444.768 86.7218Z" stroke="url(#paint1_angular_8_898)" stroke-width="200"/>
</g>
<g filter="url(#filter2_f_8_898)">
<ellipse cx="293.299" cy="1287.7" rx="737.669" ry="329.346" transform="rotate(-30 293.299 1287.7)" stroke="url(#paint2_angular_8_898)" stroke-width="300"/>
</g>
<g style="mix-blend-mode:overlay" filter="url(#filter3_f_8_898)">
<path d="M-642.933 201.134C-750.596 387.611 -814.377 581.556 -826.924 747.229C-838.871 904.975 -805.204 1074.7 -668.138 1153.84C-531.072 1232.97 -367.249 1177.27 -236.61 1088.05C-99.4067 994.345 36.6642 842.136 144.327 655.659C251.989 469.182 315.771 275.236 328.318 109.563C340.265 -48.1827 306.597 -217.911 169.531 -297.047C32.4649 -376.182 -131.358 -320.474 -261.996 -231.255C-399.2 -137.552 -535.271 14.6568 -642.933 201.134Z" stroke="url(#paint3_angular_8_898)" stroke-width="200"/>
</g>
</g>
<defs>
<filter id="filter0_f_8_898" x="-930.93" y="-749.641" width="1759.58" height="2127.25" filterUnits="userSpaceOnUse" color-interpolation-filters="sRGB">
<feFlood flood-opacity="0" result="BackgroundImageFix"/>
<feBlend mode="normal" in="SourceGraphic" in2="BackgroundImageFix" result="shape"/>
<feGaussianBlur stdDeviation="100" result="effect1_foregroundBlur_8_898"/>
</filter>
<filter id="filter1_f_8_898" x="-750.93" y="-569.641" width="1399.58" height="1767.25" filterUnits="userSpaceOnUse" color-interpolation-filters="sRGB">
<feFlood flood-opacity="0" result="BackgroundImageFix"/>
<feBlend mode="normal" in="SourceGraphic" in2="BackgroundImageFix" result="shape"/>
<feGaussianBlur stdDeviation="10" result="effect1_foregroundBlur_8_898"/>
</filter>
<filter id="filter2_f_8_898" x="-716.555" y="471.422" width="2019.71" height="1632.55" filterUnits="userSpaceOnUse" color-interpolation-filters="sRGB">
<feFlood flood-opacity="0" result="BackgroundImageFix"/>
<feBlend mode="normal" in="SourceGraphic" in2="BackgroundImageFix" result="shape"/>
<feGaussianBlur stdDeviation="100" result="effect1_foregroundBlur_8_898"/>
</filter>
<filter id="filter3_f_8_898" x="-1129.1" y="-635.229" width="1759.58" height="2127.25" filterUnits="userSpaceOnUse" color-interpolation-filters="sRGB">
<feFlood flood-opacity="0" result="BackgroundImageFix"/>
<feBlend mode="normal" in="SourceGraphic" in2="BackgroundImageFix" result="shape"/>
<feGaussianBlur stdDeviation="100" result="effect1_foregroundBlur_8_898"/>
</filter>
<radialGradient id="paint0_angular_8_898" cx="0" cy="0" r="1" gradientUnits="userSpaceOnUse" gradientTransform="translate(-120.64 246.45) rotate(-47.2039) scale(897.315 830.638)">
<stop offset="0.138408" stop-color="#3B99FC"/>
<stop offset="0.309359" stop-color="#0056B3"/>
<stop offset="0.483821" stop-color="#0056B3"/>
<stop offset="0.737042" stop-color="#3B99FC"/>
<stop offset="0.891086" stop-color="#3B99FC"/>
</radialGradient>
<radialGradient id="paint1_angular_8_898" cx="0" cy="0" r="1" gradientUnits="userSpaceOnUse" gradientTransform="translate(-120.64 246.45) rotate(-47.2039) scale(897.315 830.638)">
<stop offset="0.138408" stop-color="#3B99FC"/>
<stop offset="0.309359" stop-color="#0056B3"/>
<stop offset="0.483821" stop-color="#0056B3"/>
<stop offset="0.737042" stop-color="#3B99FC"/>
<stop offset="0.891086" stop-color="#3B99FC"/>
</radialGradient>
<radialGradient id="paint2_angular_8_898" cx="0" cy="0" r="1" gradientUnits="userSpaceOnUse" gradientTransform="translate(269.564 1374.98) rotate(-168.086) scale(894.295 774.252)">
<stop offset="0.138408" stop-color="#3B99FC"/>
<stop offset="0.309359" stop-color="#0056B3"/>
<stop offset="0.483821" stop-color="#0056B3"/>
<stop offset="0.737042" stop-color="#3B99FC"/>
<stop offset="0.891086" stop-color="#3B99FC"/>
</radialGradient>
<radialGradient id="paint3_angular_8_898" cx="0" cy="0" r="1" gradientUnits="userSpaceOnUse" gradientTransform="translate(-318.806 360.863) rotate(-47.2039) scale(897.315 830.638)">
<stop offset="0.138408" stop-color="#3B99FC"/>
<stop offset="0.309359" stop-color="#0056B3"/>
<stop offset="0.483821" stop-color="#0056B3"/>
<stop offset="0.737042" stop-color="#3B99FC"/>
<stop offset="0.891086" stop-color="#3B99FC"/>
</radialGradient>
</defs>
</svg>
