<svg width="376" height="812" viewBox="0 0 376 812" fill="none" xmlns="http://www.w3.org/2000/svg">
<mask id="mask0_9_913" style="mask-type:alpha" maskUnits="userSpaceOnUse" x="0" y="0" width="376" height="812">
<rect y="812" width="812" height="376" transform="rotate(-90 0 812)" fill="#D9D9D9"/>
</mask>
<g mask="url(#mask0_9_913)">
<g filter="url(#filter0_f_9_913)">
<path d="M-168.843 1227.14C-61.8042 1334.92 59.4113 1415.29 172.541 1455.42C278.179 1492.89 413.104 1506.1 503.78 1416.05C594.455 1326.01 582.181 1190.99 545.446 1085.1C506.105 971.69 426.587 849.919 319.548 742.132C212.508 634.345 91.2929 553.981 -21.837 513.852C-127.474 476.381 -262.4 463.167 -353.075 553.214C-443.751 643.261 -431.477 778.275 -394.742 884.171C-355.401 997.577 -275.883 1119.35 -168.843 1227.14Z" stroke="url(#paint0_linear_9_913)" stroke-width="200"/>
</g>
<g filter="url(#filter1_f_9_913)">
<path d="M-168.843 1227.14C-61.8042 1334.92 59.4113 1415.29 172.541 1455.42C278.179 1492.89 413.104 1506.1 503.78 1416.05C594.455 1326.01 582.181 1190.99 545.446 1085.1C506.105 971.69 426.587 849.919 319.548 742.132C212.508 634.345 91.2929 553.981 -21.837 513.852C-127.474 476.381 -262.4 463.167 -353.075 553.214C-443.751 643.261 -431.477 778.275 -394.742 884.171C-355.401 997.577 -275.883 1119.35 -168.843 1227.14Z" stroke="url(#paint1_linear_9_913)" stroke-width="200"/>
</g>
<g filter="url(#filter2_f_9_913)">
<ellipse cx="784.646" cy="931.536" rx="508.007" ry="226.809" transform="rotate(-104.801 784.646 931.536)" stroke="url(#paint2_linear_9_913)" stroke-width="300"/>
</g>
<g style="mix-blend-mode:overlay" filter="url(#filter3_f_9_913)">
<path d="M-128.589 1379.49C-21.5499 1487.28 99.6656 1567.64 212.795 1607.77C318.433 1645.24 453.358 1658.45 544.034 1568.41C634.71 1478.36 622.435 1343.35 585.7 1237.45C546.359 1124.04 466.841 1002.27 359.802 894.485C252.763 786.699 131.547 706.335 18.4173 666.206C-87.2201 628.735 -222.145 615.521 -312.821 705.568C-403.497 795.615 -391.222 930.629 -354.487 1036.52C-315.147 1149.93 -235.628 1271.7 -128.589 1379.49Z" stroke="url(#paint3_linear_9_913)" stroke-width="200"/>
</g>
</g>
<defs>
<filter id="filter0_f_9_913" x="-722.263" y="185.269" width="1595.23" height="1598.73" filterUnits="userSpaceOnUse" color-interpolation-filters="sRGB">
<feFlood flood-opacity="0" result="BackgroundImageFix"/>
<feBlend mode="normal" in="SourceGraphic" in2="BackgroundImageFix" result="shape"/>
<feGaussianBlur stdDeviation="100" result="effect1_foregroundBlur_9_913"/>
</filter>
<filter id="filter1_f_9_913" x="-542.263" y="365.269" width="1235.23" height="1238.73" filterUnits="userSpaceOnUse" color-interpolation-filters="sRGB">
<feFlood flood-opacity="0" result="BackgroundImageFix"/>
<feBlend mode="normal" in="SourceGraphic" in2="BackgroundImageFix" result="shape"/>
<feGaussianBlur stdDeviation="10" result="effect1_foregroundBlur_9_913"/>
</filter>
<filter id="filter2_f_9_913" x="179.797" y="86.8877" width="1209.7" height="1689.3" filterUnits="userSpaceOnUse" color-interpolation-filters="sRGB">
<feFlood flood-opacity="0" result="BackgroundImageFix"/>
<feBlend mode="normal" in="SourceGraphic" in2="BackgroundImageFix" result="shape"/>
<feGaussianBlur stdDeviation="100" result="effect1_foregroundBlur_9_913"/>
</filter>
<filter id="filter3_f_9_913" x="-682.009" y="337.622" width="1595.23" height="1598.73" filterUnits="userSpaceOnUse" color-interpolation-filters="sRGB">
<feFlood flood-opacity="0" result="BackgroundImageFix"/>
<feBlend mode="normal" in="SourceGraphic" in2="BackgroundImageFix" result="shape"/>
<feGaussianBlur stdDeviation="100" result="effect1_foregroundBlur_9_913"/>
</filter>
<linearGradient id="paint0_linear_9_913" x1="345.427" y1="1542.66" x2="-441.169" y2="604.99" gradientUnits="userSpaceOnUse">
<stop stop-color="#3B99FC"/>
<stop offset="0.25" stop-color="#0056B3"/>
<stop offset="0.5" stop-color="#0056B3"/>
<stop offset="0.75" stop-color="#3B99FC"/>
<stop offset="1" stop-color="#3B99FC"/>
</linearGradient>
<linearGradient id="paint1_linear_9_913" x1="345.427" y1="1542.66" x2="-441.169" y2="604.99" gradientUnits="userSpaceOnUse">
<stop stop-color="#3B99FC"/>
<stop offset="0.25" stop-color="#0056B3"/>
<stop offset="0.5" stop-color="#0056B3"/>
<stop offset="0.75" stop-color="#3B99FC"/>
<stop offset="1" stop-color="#3B99FC"/>
</linearGradient>
<linearGradient id="paint2_linear_9_913" x1="1370.9" y1="1118.79" x2="152.661" y2="1008.49" gradientUnits="userSpaceOnUse">
<stop stop-color="#3B99FC"/>
<stop offset="0.25" stop-color="#0056B3"/>
<stop offset="0.5" stop-color="#0056B3"/>
<stop offset="0.75" stop-color="#3B99FC"/>
<stop offset="1" stop-color="#3B99FC"/>
</linearGradient>
<linearGradient id="paint3_linear_9_913" x1="385.681" y1="1695.01" x2="-400.915" y2="757.343" gradientUnits="userSpaceOnUse">
<stop stop-color="#3B99FC"/>
<stop offset="0.25" stop-color="#0056B3"/>
<stop offset="0.5" stop-color="#0056B3"/>
<stop offset="0.75" stop-color="#3B99FC"/>
<stop offset="1" stop-color="#3B99FC"/>
</linearGradient>
</defs>
</svg>
